# xmcd
#
# Track frame offsets: 
#        150
#        9910
#        19212
#        32067
#        44661
#        58084
#        69203
#        81577
#        91561
#        103788
#        117765
#        131275
#        143532
#        153286
#        166938
#        177231
#        188720
#        200573
#
# Disc length: 2845 seconds
#
# Revision: 0
# Processed by: cddbd v1.5.2PL0 Copyright (c) Steve Scherf et al.
# Submitted via: ExactAudioCopy v0.95b4
#
DISCID=e30b1b12
DTITLE=Various Artist - Loaves and Fishes
DYEAR=1999
DGENRE=Gospel
TTITLE0=The Blood - The Zion Travellers
TTITLE1=Touch The Hem Of His Garment - The Soul Stirrers
TTITLE2=Prayer for the Doomed - The Chosen Gospel Singers
TTITLE3=Get Away Jordan - Dorothy Love Coates
TTITLE4=Satisfied - The Harmonizers
TTITLE5=Jesus Hits Like The Atom Bomb - The Pilgrim Travellers
TTITLE6=God Rode in the Windstorm - Prof James Earle Hines and his Goodw
TTITLE6=ill Singers
TTITLE7=The Love of God - Johhnie Taylor
TTITLE8=Every Time I Feel The Spirit - The Zion Travellers
TTITLE9=The Ball Game - Sister Wynona Carr
TTITLE10=I Wanna See Jesus - Madam Ira Mae Littlejohn
TTITLE11=99.5 Won't Do - Dorothy Love Coates
TTITLE12=Just A Little Talk With Jesus - Smith Jubilee Singers
TTITLE13=The Last Mile of the Way - The Soul Stirrers
TTITLE14=Climbing Jacob's Ladder - Echoes of Zion
TTITLE15=This May Be The Last Time - The Original Five Blind Boys of A
TTITLE15=labama
TTITLE16=Jesus Said If You Go - Lillian Holmes and Madam Wesley Mae Walk
TTITLE16=er
TTITLE17=A Soldier of the Cross - The Zion Travellers
EXTD=
EXTT0=
EXTT1=
EXTT2=
EXTT3=
EXTT4=
EXTT5=
EXTT6=
EXTT7=
EXTT8=
EXTT9=
EXTT10=
EXTT11=
EXTT12=
EXTT13=
EXTT14=
EXTT15=
EXTT16=
EXTT17=
PLAYORDER=
